<svg xmlns="http://www.w3.org/2000/svg" viewBox="0 0 64 64" width="64" height="64" fill="none">

  <circle cx="32" cy="32" r="28" stroke="#1a3a6b" stroke-width="2" fill="none"/>
  <!-- Nozzle -->
  <rect x="18" y="26" width="20" height="11" rx="2" stroke="#1a3a6b" stroke-width="2" fill="#2952a3" fill-opacity="0.15"/>
  <rect x="38" y="29" width="8" height="5" rx="1" stroke="#1a3a6b" stroke-width="1.5" fill="none"/>
  <!-- Hot wavy lines -->
  <path d="M48 22 Q51 19 54 22 Q57 25 54 28" stroke="#CC0000" stroke-width="1.5" fill="none" stroke-linecap="round"/>
  <path d="M48 28 Q51 25 54 28 Q57 31 54 34" stroke="#CC0000" stroke-width="1.5" fill="none" stroke-linecap="round"/>
  <path d="M48 34 Q51 31 54 34 Q57 37 54 40" stroke="#CC0000" stroke-width="1.5" fill="none" stroke-linecap="round"/>
  <!-- Flame accent -->
  <path d="M27 35 Q25 31 28 28 Q27 32 30 30 Q28 33 31 35 Q29 35 27 35Z" fill="#CC0000" opacity="0.7"/>

</svg>