<svg xmlns="http://www.w3.org/2000/svg" viewBox="0 0 64 64" width="64" height="64" fill="none">

  <circle cx="32" cy="32" r="28" stroke="#1a3a6b" stroke-width="2" fill="none"/>
  <!-- Vent grille -->
  <rect x="16" y="20" width="32" height="24" rx="2" stroke="#1a3a6b" stroke-width="2" fill="#2952a3" fill-opacity="0.1"/>
  <!-- Horizontal slats -->
  <line x1="18" y1="26" x2="46" y2="26" stroke="#1a3a6b" stroke-width="1.5" stroke-linecap="round"/>
  <line x1="18" y1="30" x2="46" y2="30" stroke="#1a3a6b" stroke-width="1.5" stroke-linecap="round"/>
  <line x1="18" y1="34" x2="46" y2="34" stroke="#1a3a6b" stroke-width="1.5" stroke-linecap="round"/>
  <line x1="18" y1="38" x2="46" y2="38" stroke="#1a3a6b" stroke-width="1.5" stroke-linecap="round"/>
  <!-- Fan/propeller -->
  <circle cx="32" cy="32" r="6" stroke="#CC0000" stroke-width="1.5" fill="#CC0000" fill-opacity="0.1"/>
  <path d="M32 26 Q35 28 35 32 Q33 29 32 26Z" fill="#CC0000" opacity="0.7"/>
  <path d="M38 32 Q36 35 32 35 Q35 33 38 32Z" fill="#CC0000" opacity="0.7"/>
  <path d="M32 38 Q29 36 29 32 Q31 35 32 38Z" fill="#CC0000" opacity="0.7"/>
  <path d="M26 32 Q28 29 32 29 Q29 31 26 32Z" fill="#CC0000" opacity="0.7"/>
  <!-- Air arrows -->
  <path d="M20 48 Q26 44 32 46 Q38 48 44 44" stroke="#1a3a6b" stroke-width="1.5" fill="none" stroke-linecap="round"/>
  <path d="M42 42 L44 44 L42 46" stroke="#1a3a6b" stroke-width="1.5" fill="none" stroke-linecap="round" stroke-linejoin="round"/>

</svg>