<svg xmlns="http://www.w3.org/2000/svg" viewBox="0 0 64 64" role="img" aria-label="Герб Роспотребнадзора (стилизованный)">
  <rect width="64" height="64" rx="10" fill="#ffffff"/>
  <path d="M32 8 L50 16 V30c0 12-8 21-18 26c-10-5-18-14-18-26V16z" fill="#0d3b8e" stroke="#0b2d6a" stroke-width="1.5"/>
  <path d="M20 26h24M32 18v28" stroke="#ffffff" stroke-width="3.5" stroke-linecap="round"/>
  <circle cx="32" cy="32" r="7" fill="#ffffff"/>
  <circle cx="32" cy="32" r="4" fill="#0d3b8e"/>
  <path d="M16 16c5 3 8 6 8 11s-3 8-8 11M48 16c-5 3-8 6-8 11s3 8 8 11" fill="none" stroke="#d4af37" stroke-width="2" stroke-linecap="round"/>
  <circle cx="32" cy="10.5" r="2.2" fill="#d4af37"/>
</svg>
